<svg width="12" height="12" viewBox="0 0 12 12" fill="none" xmlns="http://www.w3.org/2000/svg">
<path d="M2.36849 9.49984L1.02682 10.8415C0.842101 11.0262 0.630642 11.0675 0.392448 10.9655C0.154253 10.8634 0.0351562 10.6811 0.0351562 10.4186V1.33317C0.0351562 1.01234 0.149392 0.737684 0.377865 0.509212C0.606337 0.28074 0.88099 0.166504 1.20182 0.166504H10.5352C10.856 0.166504 11.1306 0.28074 11.3591 0.509212C11.5876 0.737684 11.7018 1.01234 11.7018 1.33317V8.33317C11.7018 8.654 11.5876 8.92866 11.3591 9.15713C11.1306 9.3856 10.856 9.49984 10.5352 9.49984H2.36849ZM1.87266 8.33317H10.5352V1.33317H1.20182V8.98942L1.87266 8.33317ZM2.95182 7.1665H6.45182C6.6171 7.1665 6.75564 7.1106 6.86745 6.9988C6.97925 6.88699 7.03516 6.74845 7.03516 6.58317C7.03516 6.41789 6.97925 6.27935 6.86745 6.16755C6.75564 6.05574 6.6171 5.99984 6.45182 5.99984H2.95182C2.78655 5.99984 2.648 6.05574 2.5362 6.16755C2.42439 6.27935 2.36849 6.41789 2.36849 6.58317C2.36849 6.74845 2.42439 6.88699 2.5362 6.9988C2.648 7.1106 2.78655 7.1665 2.95182 7.1665ZM2.95182 5.4165H8.78516C8.95043 5.4165 9.08898 5.3606 9.20078 5.2488C9.31259 5.13699 9.36849 4.99845 9.36849 4.83317C9.36849 4.66789 9.31259 4.52935 9.20078 4.41755C9.08898 4.30574 8.95043 4.24984 8.78516 4.24984H2.95182C2.78655 4.24984 2.648 4.30574 2.5362 4.41755C2.42439 4.52935 2.36849 4.66789 2.36849 4.83317C2.36849 4.99845 2.42439 5.13699 2.5362 5.2488C2.648 5.3606 2.78655 5.4165 2.95182 5.4165ZM2.95182 3.6665H8.78516C8.95043 3.6665 9.08898 3.6106 9.20078 3.4988C9.31259 3.38699 9.36849 3.24845 9.36849 3.08317C9.36849 2.91789 9.31259 2.77935 9.20078 2.66755C9.08898 2.55574 8.95043 2.49984 8.78516 2.49984H2.95182C2.78655 2.49984 2.648 2.55574 2.5362 2.66755C2.42439 2.77935 2.36849 2.91789 2.36849 3.08317C2.36849 3.24845 2.42439 3.38699 2.5362 3.4988C2.648 3.6106 2.78655 3.6665 2.95182 3.6665Z" fill="#994C06"/>
</svg>
