<svg width="13" height="10" viewBox="0 0 13 10" fill="none" xmlns="http://www.w3.org/2000/svg">
<path d="M1.66667 9.66683C1.34583 9.66683 1.07118 9.55259 0.842708 9.32412C0.614236 9.09565 0.5 8.821 0.5 8.50016V1.50016C0.5 1.17933 0.614236 0.904677 0.842708 0.676204C1.07118 0.447732 1.34583 0.333496 1.66667 0.333496H11C11.3208 0.333496 11.5955 0.447732 11.824 0.676204C12.0524 0.904677 12.1667 1.17933 12.1667 1.50016V8.50016C12.1667 8.821 12.0524 9.09565 11.824 9.32412C11.5955 9.55259 11.3208 9.66683 11 9.66683H1.66667ZM11 2.66683L6.63958 5.39391C6.59097 5.42308 6.53993 5.44495 6.48646 5.45954C6.43299 5.47412 6.38194 5.48141 6.33333 5.48141C6.28472 5.48141 6.23368 5.47412 6.18021 5.45954C6.12674 5.44495 6.0757 5.42308 6.02708 5.39391L1.66667 2.66683V8.50016H11V2.66683ZM6.33333 4.41683L11 1.50016H1.66667L6.33333 4.41683ZM1.66667 2.81266V1.95225V1.96683V1.95954V2.81266Z" fill="#998200"/>
</svg>
