<svg width="14" height="15" viewBox="0 0 14 15" fill="none" xmlns="http://www.w3.org/2000/svg">
<mask id="mask0_1443_17054" style="mask-type:alpha" maskUnits="userSpaceOnUse" x="0" y="0" width="14" height="15">
<rect y="0.5" width="14" height="14" fill="#D9D9D9"/>
</mask>
<g mask="url(#mask0_1443_17054)">
<path d="M5.83464 9.83334C5.99991 9.83334 6.13846 9.77744 6.25026 9.66563C6.36207 9.55383 6.41797 9.41528 6.41797 9.25001V5.75001C6.41797 5.58473 6.36207 5.44619 6.25026 5.33438C6.13846 5.22257 5.99991 5.16667 5.83464 5.16667C5.66936 5.16667 5.53082 5.22257 5.41901 5.33438C5.30721 5.44619 5.2513 5.58473 5.2513 5.75001V9.25001C5.2513 9.41528 5.30721 9.55383 5.41901 9.66563C5.53082 9.77744 5.66936 9.83334 5.83464 9.83334ZM8.16797 9.83334C8.33325 9.83334 8.47179 9.77744 8.58359 9.66563C8.6954 9.55383 8.7513 9.41528 8.7513 9.25001V5.75001C8.7513 5.58473 8.6954 5.44619 8.58359 5.33438C8.47179 5.22257 8.33325 5.16667 8.16797 5.16667C8.00269 5.16667 7.86415 5.22257 7.75234 5.33438C7.64054 5.44619 7.58464 5.58473 7.58464 5.75001V9.25001C7.58464 9.41528 7.64054 9.55383 7.75234 9.66563C7.86415 9.77744 8.00269 9.83334 8.16797 9.83334ZM7.0013 13.3333C6.19436 13.3333 5.43602 13.1802 4.7263 12.874C4.01658 12.5677 3.39922 12.1521 2.87422 11.6271C2.34922 11.1021 1.93359 10.4847 1.62734 9.77501C1.32109 9.06528 1.16797 8.30695 1.16797 7.50001C1.16797 6.69306 1.32109 5.93473 1.62734 5.22501C1.93359 4.51528 2.34922 3.89792 2.87422 3.37292C3.39922 2.84792 4.01658 2.4323 4.7263 2.12605C5.43602 1.8198 6.19436 1.66667 7.0013 1.66667C7.80825 1.66667 8.56658 1.8198 9.2763 2.12605C9.98602 2.4323 10.6034 2.84792 11.1284 3.37292C11.6534 3.89792 12.069 4.51528 12.3753 5.22501C12.6815 5.93473 12.8346 6.69306 12.8346 7.50001C12.8346 8.30695 12.6815 9.06528 12.3753 9.77501C12.069 10.4847 11.6534 11.1021 11.1284 11.6271C10.6034 12.1521 9.98602 12.5677 9.2763 12.874C8.56658 13.1802 7.80825 13.3333 7.0013 13.3333ZM7.0013 12.1667C8.30408 12.1667 9.40755 11.7146 10.3117 10.8104C11.2159 9.90626 11.668 8.80278 11.668 7.50001C11.668 6.19723 11.2159 5.09376 10.3117 4.18959C9.40755 3.28542 8.30408 2.83334 7.0013 2.83334C5.69852 2.83334 4.59505 3.28542 3.69089 4.18959C2.78672 5.09376 2.33464 6.19723 2.33464 7.50001C2.33464 8.80278 2.78672 9.90626 3.69089 10.8104C4.59505 11.7146 5.69852 12.1667 7.0013 12.1667Z" fill="#6D6C72"/>
</g>
</svg>
