<svg width="15" height="15" viewBox="0 0 15 15" fill="none" xmlns="http://www.w3.org/2000/svg">
<mask id="mask0_1443_16986" style="mask-type:alpha" maskUnits="userSpaceOnUse" x="0" y="0" width="15" height="15">
<rect x="0.398438" y="0.5" width="14" height="14" fill="#D9D9D9"/>
</mask>
<g mask="url(#mask0_1443_16986)">
<path d="M9.73177 6.33333C9.56649 6.33333 9.42795 6.27743 9.31615 6.16562C9.20434 6.05382 9.14844 5.91528 9.14844 5.75V2.83333C9.14844 2.66806 9.20434 2.52951 9.31615 2.41771C9.42795 2.3059 9.56649 2.25 9.73177 2.25C9.89705 2.25 10.0356 2.3059 10.1474 2.41771C10.2592 2.52951 10.3151 2.66806 10.3151 2.83333V5.75C10.3151 5.91528 10.2592 6.05382 10.1474 6.16562C10.0356 6.27743 9.89705 6.33333 9.73177 6.33333ZM12.0651 6.33333C11.8998 6.33333 11.7613 6.27743 11.6495 6.16562C11.5377 6.05382 11.4818 5.91528 11.4818 5.75V2.83333C11.4818 2.66806 11.5377 2.52951 11.6495 2.41771C11.7613 2.3059 11.8998 2.25 12.0651 2.25C12.2304 2.25 12.3689 2.3059 12.4807 2.41771C12.5925 2.52951 12.6484 2.66806 12.6484 2.83333V5.75C12.6484 5.91528 12.5925 6.05382 12.4807 6.16562C12.3689 6.27743 12.2304 6.33333 12.0651 6.33333ZM12.0359 12.75C10.8207 12.75 9.61997 12.4851 8.43385 11.9552C7.24774 11.4253 6.16858 10.6743 5.19635 9.70208C4.22413 8.72986 3.47309 7.65069 2.94323 6.46458C2.41337 5.27847 2.14844 4.07778 2.14844 2.8625C2.14844 2.6875 2.20677 2.54167 2.32344 2.425C2.4401 2.30833 2.58594 2.25 2.76094 2.25H5.12344C5.25955 2.25 5.38108 2.29618 5.48802 2.38854C5.59497 2.4809 5.65816 2.59028 5.6776 2.71667L6.05677 4.75833C6.07622 4.91389 6.07135 5.04514 6.04219 5.15208C6.01302 5.25903 5.95955 5.35139 5.88177 5.42917L4.46719 6.85833C4.66163 7.21806 4.89253 7.56562 5.1599 7.90104C5.42726 8.23646 5.72135 8.55972 6.04219 8.87083C6.34358 9.17222 6.65955 9.45174 6.9901 9.70937C7.32066 9.96701 7.67066 10.2028 8.0401 10.4167L9.41094 9.04583C9.49844 8.95833 9.61267 8.89271 9.75365 8.84896C9.89462 8.80521 10.0332 8.79306 10.1693 8.8125L12.1818 9.22083C12.3179 9.25972 12.4297 9.33021 12.5172 9.43229C12.6047 9.53437 12.6484 9.64861 12.6484 9.775V12.1375C12.6484 12.3125 12.5901 12.4583 12.4734 12.575C12.3568 12.6917 12.2109 12.75 12.0359 12.75ZM3.91302 5.75L4.87552 4.7875L4.6276 3.41667H3.32969C3.3783 3.81528 3.44635 4.20903 3.53385 4.59792C3.62135 4.98681 3.74774 5.37083 3.91302 5.75ZM9.13385 10.9708C9.51302 11.1361 9.89948 11.2674 10.2932 11.3646C10.687 11.4618 11.0832 11.525 11.4818 11.5542V10.2708L10.1109 9.99375L9.13385 10.9708Z" fill="#217F19"/>
</g>
</svg>
