<svg width="15" height="15" viewBox="0 0 15 15" fill="none" xmlns="http://www.w3.org/2000/svg">
<mask id="mask0_1443_16996" style="mask-type:alpha" maskUnits="userSpaceOnUse" x="0" y="0" width="15" height="15">
<rect x="0.800781" y="0.5" width="14" height="14" fill="#D9D9D9"/>
</mask>
<g mask="url(#mask0_1443_16996)">
<path d="M4.33047 10.8688C4.13602 10.7618 3.98533 10.6184 3.87839 10.4386C3.77144 10.2587 3.71797 10.057 3.71797 9.83335V7.03335L2.31797 6.26043C2.21102 6.2021 2.13325 6.12918 2.08464 6.04168C2.03602 5.95418 2.01172 5.85696 2.01172 5.75001C2.01172 5.64307 2.03602 5.54585 2.08464 5.45835C2.13325 5.37085 2.21102 5.29793 2.31797 5.2396L7.24714 2.55626C7.33464 2.50765 7.42457 2.47119 7.51693 2.44689C7.60929 2.42258 7.70408 2.41043 7.8013 2.41043C7.89852 2.41043 7.99332 2.42258 8.08568 2.44689C8.17804 2.47119 8.26797 2.50765 8.35547 2.55626L13.9117 5.5896C14.0089 5.63821 14.0843 5.70869 14.1378 5.80106C14.1912 5.89342 14.218 5.99307 14.218 6.10001V9.83335C14.218 9.99863 14.1621 10.1372 14.0503 10.249C13.9385 10.3608 13.7999 10.4167 13.6346 10.4167C13.4694 10.4167 13.3308 10.3608 13.219 10.249C13.1072 10.1372 13.0513 9.99863 13.0513 9.83335V6.39168L11.8846 7.03335V9.83335C11.8846 10.057 11.8312 10.2587 11.7242 10.4386C11.6173 10.6184 11.4666 10.7618 11.2721 10.8688L8.35547 12.4438C8.26797 12.4924 8.17804 12.5288 8.08568 12.5531C7.99332 12.5774 7.89852 12.5896 7.8013 12.5896C7.70408 12.5896 7.60929 12.5774 7.51693 12.5531C7.42457 12.5288 7.33464 12.4924 7.24714 12.4438L4.33047 10.8688ZM7.8013 7.90835L11.7971 5.75001L7.8013 3.59168L3.80547 5.75001L7.8013 7.90835ZM7.8013 11.4229L10.718 9.84793V7.64585L8.37005 8.94376C8.28255 8.99237 8.19019 9.02883 8.09297 9.05314C7.99575 9.07744 7.89852 9.0896 7.8013 9.0896C7.70408 9.0896 7.60686 9.07744 7.50964 9.05314C7.41241 9.02883 7.32005 8.99237 7.23255 8.94376L4.88464 7.64585V9.84793L7.8013 11.4229Z" fill="#741815"/>
</g>
</svg>
