<svg width="15" height="14" viewBox="0 0 15 14" fill="none" xmlns="http://www.w3.org/2000/svg">
<path d="M10.3526 8.16644C10.2359 8.10811 9.4776 7.7581 9.36094 7.69977C9.24427 7.64144 9.1276 7.64144 9.01094 7.75811C8.89427 7.87477 8.66094 8.22477 8.54427 8.34144C8.48594 8.45811 8.36927 8.4581 8.2526 8.39977C7.84427 8.22477 7.43594 7.99144 7.08594 7.69977C6.79427 7.4081 6.5026 7.0581 6.26927 6.70811C6.21094 6.59144 6.26927 6.47477 6.3276 6.41644C6.38594 6.35811 6.44427 6.24144 6.56094 6.18311C6.61927 6.12477 6.6776 6.0081 6.6776 5.94977C6.73594 5.89144 6.73594 5.77477 6.6776 5.71644C6.61927 5.65811 6.3276 4.95811 6.21094 4.66644C6.1526 4.25811 6.03594 4.25811 5.91927 4.25811H5.6276C5.51094 4.25811 5.33594 4.37477 5.2776 4.43311C4.9276 4.78311 4.7526 5.19144 4.7526 5.65811C4.81094 6.1831 4.98594 6.70811 5.33594 7.17477C5.9776 8.10811 6.79427 8.86644 7.78594 9.33311C8.0776 9.44977 8.31094 9.56644 8.6026 9.62477C8.89427 9.74144 9.18594 9.74144 9.53594 9.68311C9.94427 9.62477 10.2943 9.33311 10.5276 8.9831C10.6443 8.74977 10.6443 8.51644 10.5859 8.2831L10.3526 8.16644ZM11.8109 2.85811C9.53594 0.583106 5.86094 0.583106 3.58594 2.85811C1.71927 4.72477 1.36927 7.5831 2.6526 9.8581L1.83594 12.8331L4.9276 12.0164C5.8026 12.4831 6.73594 12.7164 7.66927 12.7164C10.8776 12.7164 13.4443 10.1498 13.4443 6.94144C13.5026 5.42477 12.8609 3.96644 11.8109 2.85811ZM10.2359 11.0248C9.4776 11.4914 8.6026 11.7831 7.66927 11.7831C6.79427 11.7831 5.9776 11.5498 5.21927 11.1414L5.04427 11.0248L3.23594 11.4914L3.7026 9.74144L3.58594 9.56644C2.18594 7.2331 2.88594 4.31644 5.16094 2.85811C7.43594 1.39977 10.3526 2.15811 11.7526 4.37477C13.1526 6.64977 12.5109 9.62477 10.2359 11.0248Z" fill="#008000"/>
</svg>
